<?xml version="1.0" encoding="utf-8"?><svg viewBox="0 0 106 85" xmlns="http://www.w3.org/2000/svg" xmlns:xlink="http://www.w3.org/1999/xlink"><style>:root>svg{display:none}:root>svg:target{display:block}</style><svg fill="none" viewBox="0 0 106 12" id="Vector" xmlns="http://www.w3.org/2000/svg"><path d="M106 6 96 .226v11.547L106 6zM-1 7h98V5H-1v2z" fill="#FFBF40"/></svg><svg fill="none" viewBox="0 0 60 60" id="arrow-left-black" xmlns="http://www.w3.org/2000/svg"><circle cx="29.514" cy="29.514" r="29.014" transform="matrix(-1 0 0 1 59.028 0)" fill="#000" stroke="#FFBF40"/><path d="M45.353 29.123H13.675m15.839-15.839-15.839 15.84 15.84 15.839" stroke="#FFBF40" stroke-width="2" stroke-linecap="round" stroke-linejoin="round"/></svg><svg fill="none" viewBox="0 0 60 60" id="arrow-left-white" xmlns="http://www.w3.org/2000/svg"><circle cx="29.514" cy="29.514" r="29.014" transform="matrix(-1 0 0 1 59.028 0)" fill="#fff" stroke="#000"/><path d="M45.353 29.123H13.675m15.839-15.839-15.839 15.84 15.84 15.839" stroke="#000" stroke-width="2" stroke-linecap="round" stroke-linejoin="round"/></svg><svg fill="none" viewBox="0 0 60 60" id="arrow-right-black" xmlns="http://www.w3.org/2000/svg"><circle cx="29.514" cy="29.514" r="29.014" fill="#000" stroke="#FFBF40"/><path d="M13.674 29.123h31.678M29.513 13.284l15.84 15.84-15.84 15.839" stroke="#FFBF40" stroke-width="2" stroke-linecap="round" stroke-linejoin="round"/></svg><svg fill="none" viewBox="0 0 60 60" id="arrow-right-white" xmlns="http://www.w3.org/2000/svg"><circle cx="29.541" cy="29.514" r="29.014" fill="#fff" stroke="#000"/><path d="M13.701 29.123H45.38M29.54 13.284l15.84 15.84-15.84 15.839" stroke="#000" stroke-width="2" stroke-linecap="round" stroke-linejoin="round"/></svg><svg viewBox="0 0 85 85" id="mail" xmlns="http://www.w3.org/2000/svg"><path fill-rule="evenodd" clip-rule="evenodd" d="M42.972 84.055C66.183 84.055 85 65.24 85 42.028 85 18.817 66.183 0 42.972 0S.944 18.817.944 42.028s18.817 42.027 42.028 42.027zM23.805 27.063a6.304 6.304 0 0 1 4.457-1.846h29.42a6.304 6.304 0 0 1 6.304 6.304v21.014a6.304 6.304 0 0 1-6.304 6.304h-29.42a6.304 6.304 0 0 1-6.304-6.304V31.52c0-1.672.665-3.276 1.847-4.458zm20.66 14.713L56.82 29.419H29.124L41.48 41.776a2.101 2.101 0 0 0 2.984 0zM59.167 54.02c.394-.395.615-.929.615-1.486V32.382L47.427 44.74a6.304 6.304 0 0 1-8.91 0L26.161 32.382v20.153a2.101 2.101 0 0 0 2.101 2.101h29.42c.557 0 1.092-.221 1.486-.615z"/></svg><svg viewBox="0 0 85 85" id="telegram" xmlns="http://www.w3.org/2000/svg"><path fill-rule="evenodd" clip-rule="evenodd" d="M42.323 84.055c23.21 0 42.027-18.816 42.027-42.027C84.35 18.817 65.534 0 42.323 0 19.11 0 .295 18.817.295 42.028S19.11 84.055 42.323 84.055zm18.473-57.204c.324-3.682-3.564-2.166-3.564-2.166-2.87 1.189-5.831 2.396-8.824 3.617-9.279 3.785-18.865 7.695-27.031 11.543-4.428 1.625-1.836 3.249-1.836 3.249l7.02 2.166c3.24.974 4.968-.109 4.968-.109l15.12-10.287c5.399-3.681 4.103-.65 2.807.65l-11.34 10.828c-1.728 1.517-.864 2.816-.108 3.466 2.143 1.89 7.413 5.349 9.714 6.859.6.393.997.654 1.086.72.54.434 3.456 2.383 5.4 1.95 1.944-.433 2.16-2.924 2.16-2.924l2.592-17c.389-2.952.834-5.79 1.19-8.055.337-2.14.593-3.77.646-4.507z"/></svg><svg viewBox="0 0 85 85" id="vk" xmlns="http://www.w3.org/2000/svg"><path fill-rule="evenodd" clip-rule="evenodd" d="M42.675 84.055c23.21 0 42.027-18.816 42.027-42.027C84.702 18.817 65.886 0 42.675 0 19.463 0 .647 18.817.647 42.028s18.816 42.027 42.028 42.027zM21.66 28.58c.341 16.38 8.531 26.225 22.89 26.225h.814v-9.372c5.277.525 9.267 4.384 10.868 9.372h7.456c-2.048-7.456-7.43-11.577-10.79-13.152 3.36-1.943 8.085-6.668 9.214-13.073H55.34c-1.47 5.197-5.827 9.923-9.975 10.369v-10.37h-6.773v18.167c-4.2-1.05-9.502-6.143-9.738-18.166H21.66z"/></svg><svg viewBox="0 0 85 85" id="whatsapp" xmlns="http://www.w3.org/2000/svg"><path fill-rule="evenodd" clip-rule="evenodd" d="M42.028 84.055c23.211 0 42.027-18.816 42.027-42.027C84.055 18.817 65.24 0 42.028 0 18.817 0 0 18.817 0 42.028s18.817 42.027 42.028 42.027zM58.639 24.37c-4.325-4.33-10.077-6.716-16.205-6.718-12.627 0-22.904 10.276-22.909 22.907a22.87 22.87 0 0 0 3.058 11.452l-3.25 11.871 12.144-3.185a22.887 22.887 0 0 0 10.947 2.788h.01c12.625 0 22.902-10.277 22.908-22.907a22.762 22.762 0 0 0-6.703-16.208zM42.435 59.616h-.008a19.015 19.015 0 0 1-9.691-2.654l-.696-.413-7.207 1.89 1.924-7.026-.453-.72a18.996 18.996 0 0 1-2.91-10.134c.003-10.498 8.545-19.039 19.048-19.039a18.91 18.91 0 0 1 13.46 5.584 18.926 18.926 0 0 1 5.572 13.47c-.003 10.5-8.545 19.042-19.04 19.042zm10.443-14.26c-.572-.287-3.386-1.672-3.911-1.863-.525-.19-.907-.286-1.288.287-.382.573-1.479 1.862-1.813 2.244-.334.382-.668.43-1.24.143a8.364 8.364 0 0 0-.378-.17 14.77 14.77 0 0 1-4.225-2.671c-1.702-1.518-2.85-3.393-3.184-3.965-.334-.573-.036-.883.25-1.168.172-.171.37-.412.567-.652.098-.12.197-.24.292-.351.242-.283.348-.498.49-.79l.082-.165c.191-.382.096-.716-.047-1.003-.096-.191-.638-1.512-1.13-2.709-.245-.595-.477-1.16-.635-1.54-.41-.986-.826-.984-1.16-.982-.044 0-.087.001-.128-.001a22.69 22.69 0 0 0-1.097-.02c-.382 0-1.002.143-1.527.716l-.112.121c-.597.638-1.891 2.02-1.891 4.655 0 2.81 2.04 5.526 2.335 5.918l.002.003c.02.024.052.072.1.14.683.98 4.31 6.185 9.679 8.503a32.75 32.75 0 0 0 3.263 1.205c1.371.436 2.619.375 3.606.227 1.1-.164 3.386-1.384 3.863-2.721.477-1.337.477-2.483.334-2.722-.115-.193-.386-.324-.787-.518-.096-.046-.2-.096-.31-.152z" /></svg></svg>