<svg width="85" height="85" fill="none" xmlns="http://www.w3.org/2000/svg"><path fill-rule="evenodd" clip-rule="evenodd" d="M42.323 84.055c23.21 0 42.027-18.816 42.027-42.027C84.35 18.817 65.534 0 42.323 0 19.11 0 .295 18.817.295 42.028S19.11 84.055 42.323 84.055zm18.473-57.204c.324-3.682-3.564-2.166-3.564-2.166-2.87 1.189-5.831 2.396-8.824 3.617-9.279 3.785-18.865 7.695-27.031 11.543-4.428 1.625-1.836 3.249-1.836 3.249l7.02 2.166c3.24.974 4.968-.109 4.968-.109l15.12-10.287c5.399-3.681 4.103-.65 2.807.65l-11.34 10.828c-1.728 1.517-.864 2.816-.108 3.466 2.143 1.89 7.413 5.349 9.714 6.859.6.393.997.654 1.086.72.54.434 3.456 2.383 5.4 1.95 1.944-.433 2.16-2.924 2.16-2.924l2.592-17c.389-2.952.834-5.79 1.19-8.055.337-2.14.593-3.77.646-4.507z" fill="#FFBF40"/></svg>