<svg width="85" height="85" fill="none" xmlns="http://www.w3.org/2000/svg"><path fill-rule="evenodd" clip-rule="evenodd" d="M42.675 84.055c23.21 0 42.027-18.816 42.027-42.027C84.702 18.817 65.886 0 42.675 0 19.463 0 .647 18.817.647 42.028s18.816 42.027 42.028 42.027zM21.66 28.58c.341 16.38 8.531 26.225 22.89 26.225h.814v-9.372c5.277.525 9.267 4.384 10.868 9.372h7.456c-2.048-7.456-7.43-11.577-10.79-13.152 3.36-1.943 8.085-6.668 9.214-13.073H55.34c-1.47 5.197-5.827 9.923-9.975 10.369v-10.37h-6.773v18.167c-4.2-1.05-9.502-6.143-9.738-18.166H21.66z" fill="#FFBF40"/></svg>