<svg width="85" height="85" fill="none" xmlns="http://www.w3.org/2000/svg"><path fill-rule="evenodd" clip-rule="evenodd" d="M42.028 84.055c23.211 0 42.027-18.816 42.027-42.027C84.055 18.817 65.24 0 42.028 0 18.817 0 0 18.817 0 42.028s18.817 42.027 42.028 42.027zM58.639 24.37c-4.325-4.33-10.077-6.716-16.205-6.718-12.627 0-22.904 10.276-22.909 22.907a22.87 22.87 0 003.058 11.452l-3.25 11.871 12.144-3.185a22.887 22.887 0 0010.947 2.788h.01c12.625 0 22.902-10.277 22.908-22.907a22.762 22.762 0 00-6.703-16.208zM42.435 59.616h-.008a19.015 19.015 0 01-9.691-2.654l-.696-.413-7.207 1.89 1.924-7.026-.453-.72a18.996 18.996 0 01-2.91-10.134c.003-10.498 8.545-19.039 19.048-19.039a18.91 18.91 0 0113.46 5.584 18.926 18.926 0 015.572 13.47c-.003 10.5-8.545 19.042-19.04 19.042zm10.443-14.26c-.572-.287-3.386-1.672-3.911-1.863-.525-.19-.907-.286-1.288.287-.382.573-1.479 1.862-1.813 2.244-.334.382-.668.43-1.24.143a8.364 8.364 0 00-.378-.17 14.77 14.77 0 01-4.225-2.671c-1.702-1.518-2.85-3.393-3.184-3.965-.334-.573-.036-.883.25-1.168.172-.171.37-.412.567-.652.098-.12.197-.24.292-.351.242-.283.348-.498.49-.79l.082-.165c.191-.382.096-.716-.047-1.003-.096-.191-.638-1.512-1.13-2.709-.245-.595-.477-1.16-.635-1.54-.41-.986-.826-.984-1.16-.982-.044 0-.087.001-.128-.001a22.69 22.69 0 00-1.097-.02c-.382 0-1.002.143-1.527.716l-.112.121c-.597.638-1.891 2.02-1.891 4.655 0 2.81 2.04 5.526 2.335 5.918l.002.003c.02.024.052.072.1.14.683.98 4.31 6.185 9.679 8.503a32.75 32.75 0 003.263 1.205c1.371.436 2.619.375 3.606.227 1.1-.164 3.386-1.384 3.863-2.721.477-1.337.477-2.483.334-2.722-.115-.193-.386-.324-.787-.518-.096-.046-.2-.096-.31-.152z" fill="#FFBF40"/></svg>